<svg xmlns="http://www.w3.org/2000/svg" viewBox="0 0 458.8 123.1">
  <defs>
    <style>
      .cls-1 {
        fill: #e3ffd5;
      }
    </style>
  </defs>
  <title>Asset 1</title>
  <g id="Layer_2" data-name="Layer 2">
    <g id="Layer_1-2" data-name="Layer 1">
      <g>
        <path class="cls-1" d="M81.4.3A27.7,27.7,0,0,1,109,28,27.1,27.1,0,0,1,81.9,55.2V95.3a27.8,27.8,0,0,1-27.6,27.8c-14.8,0-27.2-12.5-27.2-27.8V55.2A27.2,27.2,0,0,1,0,28C0,12.9,11.9.3,27.2.3Z"/>
        <path class="cls-1" d="M136.9,113.7a27.3,27.3,0,0,1-38.7,0,26.9,26.9,0,0,1,0-38L163.6,9.5a27.1,27.1,0,0,1,34.2-5.7c8.4,4.3,13.8,13.2,13.8,23.5v68c0,14.9-13.5,27-27.2,27s-23.6-8.6-26.5-20.1L168.4,86c.5-1.4-.9-2.4-1.7-1.4Z"/>
        <path class="cls-1" d="M301.7.2c16,0,29.1,13.7,29.1,29.2a29.1,29.1,0,0,1-29.1,29.1c-8.6,0-15.3-4-20.5-4a6.8,6.8,0,0,0-6.7,6.7,6.5,6.5,0,0,0,6.7,6.2c5.2,0,11.9-3.9,20.5-3.9,16,0,29.1,13.7,29.1,29.9s-13.1,29.1-29.1,29.1h-25c-33,0-60-28.8-60-61.3,0-34,27.4-60.5,60.9-61Z"/>
        <path class="cls-1" d="M410.4,8.1a27.1,27.1,0,0,1,38.5,0,27,27,0,0,1,0,38.7L435.3,60.7,450.6,76a27.3,27.3,0,0,1-38.5,38.7L396.8,99.4l-12.6,13.1c-6,6.5-12.7,10-21.6,10a27,27,0,0,1-27-27V27.3A27,27,0,0,1,362.6,0a27.7,27.7,0,0,1,27.3,21.3l-10,14.3c-.3.9.9,2.1,1.8,1.2Z"/>
      </g>
    </g>
  </g>
</svg>
