<?xml version="1.0" standalone="no"?>
<!DOCTYPE svg PUBLIC "-//W3C//DTD SVG 20010904//EN"
 "http://www.w3.org/TR/2001/REC-SVG-20010904/DTD/svg10.dtd">
<svg version="1.0" xmlns="http://www.w3.org/2000/svg"
 width="640.000000pt" height="640.000000pt" viewBox="0 0 640.000000 640.000000"
 preserveAspectRatio="xMidYMid meet">
<metadata>
Created by potrace 1.11, written by Peter Selinger 2001-2013
</metadata>
<g transform="translate(0.000000,640.000000) scale(0.100000,-0.100000)"
fill="#000000" stroke="none">
<path d="M2998 6395 c-1 -1 -42 -6 -90 -9 -48 -3 -93 -8 -100 -10 -7 -3 -35
-7 -63 -10 -49 -6 -187 -30 -232 -41 -13 -3 -31 -7 -40 -9 -562 -129 -1095
-422 -1511 -833 -111 -110 -165 -169 -277 -304 -38 -45 -163 -224 -205 -294
-182 -299 -313 -613 -391 -940 -21 -90 -25 -107 -34 -155 -3 -14 -7 -34 -9
-46 -2 -12 -7 -45 -11 -74 -4 -29 -9 -62 -11 -73 -26 -135 -25 -613 1 -797 2
-14 6 -45 10 -70 9 -64 53 -278 66 -320 5 -19 12 -46 15 -60 10 -50 77 -247
120 -354 57 -139 105 -237 171 -353 29 -51 53 -95 53 -97 0 -11 159 -239 223
-321 97 -123 122 -151 272 -300 429 -428 985 -729 1575 -853 96 -21 122 -25
242 -42 173 -25 541 -34 708 -17 115 11 165 17 187 22 12 3 40 7 62 10 33 4
124 22 201 40 41 9 204 52 225 59 6 2 13 4 17 5 22 6 178 64 205 76 17 8 34
15 37 15 17 0 288 132 314 152 6 6 12 8 12 5 0 -16 442 278 470 312 3 3 34 30
70 60 69 58 266 253 337 334 69 78 166 206 233 307 35 52 71 107 81 121 21 31
87 153 141 259 30 60 82 183 138 325 60 154 139 471 156 630 3 27 7 56 9 63
27 81 26 599 0 789 -9 59 -15 102 -21 141 -7 51 -55 265 -61 275 -2 4 -7 20
-9 35 -8 48 -74 244 -120 356 -58 141 -116 261 -176 363 -26 45 -48 84 -48 87
0 11 -157 237 -223 321 -95 121 -114 141 -252 281 -388 390 -813 645 -1360
814 -107 33 -311 77 -440 95 -22 3 -58 8 -80 12 -22 3 -58 8 -80 10 -54 5
-502 12 -507 8z"/>
</g>
</svg>
